<svg t="1644814309886" class="icon" viewBox="0 0 1024 1024" version="1.1" xmlns="http://www.w3.org/2000/svg" p-id="8883" width="32" height="32"><path d="M395.616 512c0 15.232 3.04 30.464 8.864 44.512s14.464 27.04 25.248 37.792 23.68 19.36 37.76 25.28c14.048 5.792 29.28 8.864 44.512 8.864s30.464-3.104 44.512-8.864 26.976-14.528 37.792-25.28c10.752-10.752 19.36-23.616 25.28-37.792 5.792-14.048 8.864-29.28 8.864-44.512s-3.104-30.464-8.864-44.512c-5.792-14.08-14.528-27.008-25.28-37.76-10.784-10.784-23.648-19.424-37.792-25.248-14.048-5.824-29.28-8.864-44.512-8.864s-30.464 3.04-44.512 8.864c-14.08 5.792-26.976 14.432-37.76 25.248-10.784 10.752-19.392 23.648-25.248 37.76-5.792 14.048-8.864 29.28-8.864 44.512l0 0z" p-id="8884"></path><path d="M512 153.056c-318.464 0-490.656 358.944-490.656 358.944s173.728 358.944 490.656 358.944c318.464 0 490.656-358.944 490.656-358.944s-173.76-358.944-490.656-358.944l0 0zM512 741.856c-126.976 0-229.888-102.912-229.888-229.856s102.912-229.856 229.888-229.856c126.944 0 229.856 102.912 229.856 229.856s-102.912 229.856-229.856 229.856l0 0z" p-id="8885"></path></svg>